<svg version="1.2" baseProfile="tiny" id="Layer_1" xmlns="http://www.w3.org/2000/svg" xmlns:xlink="http://www.w3.org/1999/xlink"
	 x="0px" y="0px" viewBox="0 0 48 48" xml:space="preserve">
<path fill="#010101" d="M10.5,41c-0.4,0-0.8-0.1-1.1-0.4C9.1,40.3,9,39.9,9,39.5v-31c0-0.4,0.1-0.8,0.4-1.1C9.7,7.1,10.1,7,10.5,7
	H25c0.4,0,0.7,0.1,1,0.3c0.3,0.2,0.4,0.5,0.5,0.9l0.7,3.1h10.4c0.4,0,0.8,0.1,1.1,0.4c0.3,0.3,0.4,0.6,0.4,1.1v15.5
	c0,0.4-0.1,0.8-0.4,1.1c-0.3,0.3-0.6,0.4-1.1,0.4H27.4c-0.3,0-0.6-0.1-0.9-0.3S26,29,26,28.6l-0.7-3.1H12v14c0,0.4-0.1,0.8-0.4,1.1
	C11.3,40.9,10.9,41,10.5,41z M28.8,26.8H36V14.3H24.5L23.6,10H12v12.5h15.8L28.8,26.8z"/>
</svg>
